<?xml version="1.0" standalone="no"?>
<!DOCTYPE svg PUBLIC "-//W3C//DTD SVG 20010904//EN"
 "http://www.w3.org/TR/2001/REC-SVG-20010904/DTD/svg10.dtd">
<svg version="1.0" xmlns="http://www.w3.org/2000/svg"
 width="1588.000000pt" height="847.000000pt" viewBox="0 0 1588.000000 847.000000"
 preserveAspectRatio="xMidYMid meet">
<metadata>
Created by potrace 1.16, written by Peter Selinger 2001-2019
</metadata>
<g transform="translate(0.000000,847.000000) scale(0.100000,-0.100000)"
fill="#000000" stroke="none">
<path d="M1 7463 c1 -911 2 -997 15 -893 76 628 459 1215 996 1528 43 24 78
46 78 47 0 2 -9 1 -21 -2 -18 -5 -20 -2 -17 27 3 31 10 37 103 86 103 55 274
119 405 153 64 16 236 42 360 54 19 2 -405 5 -942 5 l-978 2 1 -1007z"/>
<path d="M3124 8449 c63 -50 71 -49 -563 -49 -744 0 -847 -9 -1119 -99 -137
-45 -342 -132 -342 -145 0 -4 22 5 49 19 148 74 375 149 572 187 l114 22 2955
6 c1625 3 2681 6 2347 8 l-608 2 3 22 c2 12 14 28 28 35 20 10 -310 13 -1719
13 l-1744 0 27 -21z"/>
<path d="M7755 8463 c288 -26 522 -87 728 -188 130 -65 144 -77 139 -118 -4
-33 -1 -36 53 -67 160 -91 399 -301 532 -465 318 -394 476 -863 460 -1370 -8
-248 -44 -441 -124 -654 -271 -725 -901 -1229 -1668 -1336 -147 -21 -493 -16
-621 8 -303 58 -524 145 -798 316 -72 45 -155 91 -185 104 l-56 22 -1363 3
-1363 2 -70 -24 c-38 -13 -128 -61 -201 -107 -300 -187 -579 -289 -898 -329
-126 -15 -405 -12 -529 6 -693 101 -1272 519 -1577 1139 -105 213 -178 468
-203 700 -5 45 -9 -1275 -10 -3012 l-1 -3093 7940 0 7940 0 0 4235 0 4235
-1235 0 c-679 0 -1235 -2 -1235 -5 0 -3 36 -77 80 -165 44 -88 80 -162 80
-165 0 -3 -76 -5 -169 -5 l-168 0 -5 -67 c-12 -166 -136 -299 -310 -334 -152
-31 -328 62 -396 209 -30 65 -42 190 -23 257 30 112 133 219 243 254 l63 20
-220 0 c-220 1 -220 1 -185 -18 74 -39 104 -142 63 -212 -10 -16 -120 -106
-245 -201 -210 -157 -232 -171 -277 -176 -122 -11 -206 111 -149 215 18 33 70
78 238 204 118 89 229 167 245 175 26 11 -9 13 -265 13 -244 1 -291 -1 -270
-12 14 -7 26 -23 28 -35 l3 -22 -586 0 c-652 0 -790 -8 -988 -59 -143 -38
-253 -78 -396 -147 -63 -30 -115 -53 -116 -52 -2 2 -6 13 -9 25 -6 19 1 28 48
58 109 70 343 158 513 195 54 11 154 27 223 34 110 12 -50 14 -1310 13 -789 0
-1417 -2 -1395 -4z m7166 -19 c547 -94 949 -569 949 -1124 0 -442 -243 -835
-635 -1029 -117 -58 -204 -86 -329 -106 -280 -46 -572 18 -816 176 -84 55
-264 235 -319 319 -417 643 -118 1493 609 1729 157 51 369 64 541 35z m-11724
-6075 l63 -11 0 -57 0 -58 -52 18 c-74 26 -162 25 -188 -1 -41 -41 -15 -67 89
-91 146 -34 181 -65 181 -162 0 -73 -24 -117 -78 -143 -47 -24 -225 -25 -287
-2 -40 15 -40 15 -43 73 -3 52 -1 57 15 50 145 -63 263 -58 263 10 0 32 -30
50 -105 65 -121 25 -175 74 -175 158 0 77 39 131 109 152 39 12 136 11 208 -1z
m596 -12 c36 -15 37 -18 37 -66 0 -28 -2 -51 -4 -51 -2 0 -23 9 -47 20 -92 41
-195 17 -232 -53 -26 -50 -26 -144 0 -194 37 -70 140 -94 232 -53 24 11 45 20
47 20 2 0 4 -23 4 -51 0 -48 -1 -51 -37 -66 -59 -25 -160 -28 -229 -8 -184 53
-245 300 -111 442 58 61 126 85 227 80 41 -2 92 -11 113 -20z m520 -2 c45 -21
91 -64 115 -109 13 -24 17 -56 17 -136 0 -118 -9 -144 -72 -205 -87 -85 -275
-87 -375 -5 -58 48 -82 110 -82 210 0 69 5 94 23 133 27 55 77 100 136 122 55
20 187 15 238 -10z m1710 2 c36 -15 37 -18 37 -66 0 -28 -2 -51 -4 -51 -2 0
-23 9 -47 20 -25 11 -66 20 -94 20 -102 0 -157 -59 -157 -170 0 -111 55 -170
157 -170 28 0 69 9 94 20 24 11 45 20 47 20 2 0 4 -23 4 -51 0 -48 -1 -51 -37
-66 -59 -25 -160 -28 -229 -8 -184 53 -245 300 -111 442 58 61 126 85 227 80
41 -2 92 -11 113 -20z m-3638 -22 c72 -37 110 -88 127 -168 25 -121 -23 -229
-127 -282 -56 -29 -64 -30 -212 -34 l-153 -3 0 262 0 262 153 -3 c148 -4 156
-5 212 -34z m375 -225 l0 -260 -70 0 -70 0 0 260 0 260 70 0 70 0 0 -260z
m2036 93 l89 -168 3 168 2 167 70 0 70 0 0 -260 0 -260 -79 0 -80 0 -93 175
-93 174 -3 -174 -2 -175 -65 0 -65 0 0 260 0 260 79 0 78 0 89 -167z m724 117
l0 -50 -115 0 -115 0 0 -50 0 -50 110 0 110 0 0 -50 0 -50 -110 0 -110 0 0
-60 0 -60 120 0 120 0 0 -50 0 -50 -190 0 -190 0 0 260 0 260 185 0 185 0 0
-50z m1080 0 l0 -50 -90 0 -90 0 0 -210 0 -210 -70 0 -70 0 0 210 0 210 -85 0
-85 0 0 50 0 50 245 0 245 0 0 -50z m430 0 l0 -50 -115 0 -115 0 0 -50 0 -50
110 0 110 0 0 -50 0 -50 -110 0 -110 0 0 -60 0 -60 120 0 120 0 0 -50 0 -50
-190 0 -190 0 0 260 0 260 185 0 185 0 0 -50z m485 15 c72 -37 110 -88 127
-168 25 -121 -23 -229 -127 -282 -56 -29 -64 -30 -212 -34 l-153 -3 0 262 0
262 153 -3 c148 -4 156 -5 212 -34z"/>
<path d="M14488 8111 l-33 -29 -3 -246 -3 -245 -245 -3 -246 -3 -29 -33 -30
-34 3 -208 c3 -188 5 -210 22 -229 31 -34 80 -41 309 -41 l217 0 0 -227 c0
-197 2 -233 18 -263 28 -56 45 -60 264 -60 l198 0 32 29 33 29 3 245 3 245
245 4 246 3 29 33 29 32 0 205 0 205 -29 32 -29 33 -246 3 -245 3 -3 245 -3
246 -33 29 -32 29 -205 0 -205 0 -32 -29z"/>
<path d="M4116 2259 c-42 -33 -58 -74 -58 -149 0 -109 46 -170 127 -170 80 0
125 61 125 170 0 72 -17 119 -55 148 -37 29 -103 30 -139 1z"/>
<path d="M2160 2110 l0 -163 61 7 c107 11 152 56 153 155 1 99 -45 146 -153
157 l-61 7 0 -163z"/>
<path d="M7290 2110 l0 -163 61 7 c107 11 152 56 153 155 1 99 -45 146 -153
157 l-61 7 0 -163z"/>
<path d="M12960 8454 c109 -29 208 -120 246 -224 9 -25 19 -53 23 -64 5 -13
28 22 90 143 l82 161 -248 -1 c-237 0 -246 -1 -193 -15z"/>
<path d="M7435 8124 c-312 -46 -522 -114 -737 -240 -307 -180 -582 -481 -729
-799 -376 -815 -106 -1777 639 -2275 459 -307 1040 -386 1572 -214 137 45 361
157 480 241 123 87 346 310 433 433 83 118 196 341 241 480 146 443 114 936
-89 1355 -255 529 -737 892 -1326 1001 -81 15 -419 27 -484 18z m775 -561 l0
-38 22 38 c13 21 30 37 40 37 24 0 23 -4 -13 -68 -28 -50 -30 -62 -27 -126 2
-58 0 -71 -12 -71 -8 0 -16 11 -18 25 -6 39 -18 44 -31 11 -13 -30 -35 -46
-52 -36 -4 3 8 35 27 70 34 61 35 68 29 130 -7 62 -6 65 14 65 18 0 21 -6 21
-37z m-520 -53 c166 -26 316 -151 372 -308 57 -160 17 -355 -96 -473 -42 -45
-953 -758 -1026 -804 -78 -49 -155 -67 -265 -63 -122 6 -187 28 -270 96 -222
178 -240 509 -38 704 70 68 977 767 1036 798 52 28 151 57 202 59 11 1 49 -4
85 -9z m1490 -770 c0 -123 -1 -130 -20 -130 -15 0 -20 7 -20 25 0 18 -5 25
-19 25 -12 0 -21 -9 -25 -25 -4 -17 -13 -25 -27 -25 -13 0 -19 5 -17 13 52
151 95 247 110 247 16 0 18 -12 18 -130z m-537 55 c189 -49 325 -197 357 -386
22 -129 -19 -276 -105 -376 -33 -39 -972 -777 -1046 -823 -90 -55 -246 -75
-354 -46 -232 62 -387 296 -347 524 14 84 41 150 89 214 46 63 997 807 1093
856 103 52 209 64 313 37z m-2553 -792 l1 -48 25 48 c17 32 31 47 44 47 19 0
17 -6 -17 -72 -20 -40 -41 -98 -48 -128 -9 -45 -15 -56 -33 -58 -21 -3 -22 -1
-15 25 4 15 7 74 6 131 -2 95 0 102 18 102 16 0 19 -7 19 -47z m1016 -755 c-4
-28 -10 -57 -14 -62 -3 -6 -7 -29 -8 -51 -2 -22 -7 -53 -13 -68 -10 -25 -15
-27 -66 -27 -30 0 -55 2 -55 4 0 2 11 58 25 126 14 68 25 124 25 126 0 2 25 4
56 4 l57 0 -7 -52z"/>
<path d="M7520 7405 c-328 -92 -371 -545 -66 -695 169 -83 374 -27 476 130
123 192 52 445 -154 541 -80 37 -175 46 -256 24z"/>
<path d="M6595 6687 c-110 -37 -196 -112 -242 -212 -22 -49 -27 -74 -28 -140
0 -99 22 -167 76 -235 137 -174 383 -196 544 -49 204 187 146 515 -110 624
-53 22 -188 29 -240 12z"/>
<path d="M8435 6696 c-110 -35 -190 -104 -239 -206 -27 -58 -31 -75 -30 -150
1 -106 27 -179 90 -249 181 -202 496 -157 616 87 30 60 33 75 33 157 0 96 -16
146 -72 228 -78 113 -264 175 -398 133z"/>
<path d="M7479 5967 c-102 -43 -163 -101 -208 -197 -22 -47 -26 -69 -26 -150
0 -82 4 -103 27 -152 35 -76 95 -138 170 -179 60 -33 68 -34 168 -34 93 0 112
3 162 27 151 70 240 246 208 405 -25 121 -99 216 -207 270 -47 22 -73 28 -147
30 -78 3 -99 0 -147 -20z m295 -26 c106 -52 180 -152 195 -266 22 -162 -52
-304 -201 -382 -48 -25 -63 -28 -153 -28 -121 0 -167 18 -249 95 -78 74 -110
150 -110 260 -1 72 4 94 27 145 28 59 76 118 130 157 94 68 246 76 361 19z"/>
<path d="M3683 7958 c-17 -21 -35 -98 -29 -124 3 -12 22 -50 42 -83 31 -52 35
-66 29 -100 -7 -45 -27 -66 -51 -57 -14 5 -15 15 -10 57 7 49 6 50 -16 47 -19
-2 -24 -12 -32 -55 -12 -74 -7 -83 56 -83 29 0 59 4 67 9 8 5 20 37 27 72 13
63 13 64 -17 116 -17 29 -34 55 -40 58 -23 15 -5 102 23 111 27 8 37 -10 31
-57 -5 -35 -3 -39 15 -39 24 0 35 29 36 95 l1 40 -61 3 c-41 2 -64 -1 -71 -10z"/>
<path d="M3865 7958 c-12 -35 -65 -379 -60 -388 9 -15 120 -12 133 3 6 7 25
87 42 177 16 91 33 177 36 193 5 22 2 27 -15 27 -23 0 -22 5 -51 -160 -41
-232 -38 -220 -71 -220 -23 0 -29 4 -29 21 0 18 38 244 56 332 5 23 2 27 -16
27 -11 0 -23 -6 -25 -12z"/>
<path d="M4022 7792 c-18 -97 -36 -190 -39 -205 -5 -26 -3 -28 18 -25 20 3 25
12 36 73 22 121 18 115 67 115 25 0 48 6 55 14 15 18 45 171 38 190 -5 12 -22
16 -74 16 l-68 0 -33 -178z"/>
<path d="M4204 7765 l-41 -206 56 3 c44 2 57 7 59 21 3 13 -3 17 -27 17 -28 0
-30 2 -25 28 3 15 8 47 12 72 7 42 10 45 40 48 24 2 32 8 32 23 0 14 -7 19
-25 19 -29 0 -29 5 -14 83 11 53 14 57 39 57 19 0 29 6 33 20 5 18 0 20 -47
20 l-51 0 -41 -205z"/>
<path d="M4385 7958 c-2 -7 -18 -87 -35 -178 -17 -91 -33 -178 -36 -193 -5
-26 -3 -28 17 -25 21 3 25 12 36 73 20 110 22 115 44 115 30 0 34 -25 17 -111
l-15 -79 23 0 c20 0 23 8 37 83 14 73 14 84 0 99 -13 14 -12 17 6 23 21 6 43
83 45 160 l1 40 -68 3 c-48 2 -69 -1 -72 -10z"/>
<path d="M4666 7953 c-3 -10 -19 -94 -36 -188 -17 -93 -34 -178 -37 -188 -4
-15 0 -18 23 -15 27 3 29 6 51 117 13 63 25 116 27 118 2 2 7 -29 10 -69 14
-161 16 -168 40 -168 20 0 24 11 55 178 18 97 35 189 38 205 5 24 2 27 -21 27
-14 0 -26 -2 -26 -4 0 -6 -30 -158 -37 -186 -6 -24 -6 -23 -14 10 -4 19 -11
68 -14 108 -7 67 -9 72 -31 72 -13 0 -25 -7 -28 -17z"/>
<path d="M4876 7953 c-3 -10 -19 -92 -36 -183 -16 -91 -33 -175 -35 -187 -4
-19 -1 -23 18 -23 22 0 24 9 56 178 18 97 35 189 38 205 5 22 2 27 -15 27 -11
0 -23 -8 -26 -17z"/>
<path d="M4955 7948 c-3 -13 -19 -95 -35 -183 -16 -88 -32 -170 -35 -183 -5
-21 -2 -23 21 -20 27 3 29 7 50 111 30 143 30 143 38 62 17 -182 16 -175 40
-175 20 0 24 11 55 178 18 97 35 189 38 205 5 24 3 27 -21 27 -14 0 -26 -2
-26 -4 0 -6 -30 -158 -37 -186 -6 -24 -6 -23 -14 10 -4 19 -11 68 -14 108 -7
67 -9 72 -31 72 -16 0 -25 -7 -29 -22z"/>
<path d="M5160 7951 c0 -10 6 -21 14 -24 13 -5 11 -25 -43 -319 -8 -47 -8 -48
18 -48 26 0 28 4 39 73 43 250 54 295 73 300 10 3 19 12 19 21 0 13 -12 16
-60 16 -52 0 -60 -2 -60 -19z"/>
<path d="M5305 7948 c-10 -43 -75 -371 -75 -380 0 -4 25 -8 55 -8 48 0 55 2
55 20 0 15 -7 20 -25 20 -29 0 -29 1 -14 87 10 60 13 63 39 63 19 0 29 6 33
20 4 17 0 20 -24 20 -16 0 -29 3 -29 8 1 4 6 34 13 67 12 57 14 60 45 63 24 2
32 8 32 23 0 16 -7 19 -50 19 -43 0 -50 -3 -55 -22z"/>
<path d="M5412 7808 c-50 -261 -49 -248 -19 -248 24 0 26 5 48 120 13 66 26
115 30 108 4 -7 10 -61 14 -120 7 -105 8 -108 31 -108 19 0 24 7 30 38 4 20
21 112 39 205 l32 167 -27 0 c-26 0 -27 -2 -46 -105 -10 -58 -21 -105 -25
-105 -3 0 -9 30 -13 68 -13 131 -16 142 -41 142 -21 0 -24 -10 -53 -162z"/>
<path d="M5616 7781 c-20 -104 -36 -196 -36 -205 0 -13 12 -16 64 -16 42 0 67
5 75 14 20 24 82 367 70 383 -7 8 -34 13 -74 13 l-62 0 -37 -189z m122 137
c12 -16 -38 -289 -57 -312 -14 -16 -51 -22 -51 -8 0 4 14 79 30 167 16 88 30
161 30 163 0 8 39 0 48 -10z"/>
<path d="M5848 7957 c-16 -16 -83 -372 -73 -387 9 -15 131 -12 143 3 14 16 74
331 70 366 -3 25 -6 26 -64 29 -43 2 -66 -1 -76 -11z m80 -39 c14 -18 -40
-307 -59 -319 -20 -13 -34 -6 -37 20 -4 26 34 254 48 289 11 24 32 29 48 10z"/>
<path d="M3098 7903 c-23 -15 -58 -67 -58 -86 0 -3 13 -8 30 -12 42 -9 77 -40
90 -80 14 -42 30 -44 70 -7 79 71 42 188 -62 198 -30 3 -51 -1 -70 -13z"/>
<path d="M3321 7763 c-16 -16 -32 -38 -36 -50 -5 -18 0 -23 29 -33 40 -13 86
-62 86 -91 0 -24 17 -24 56 0 63 38 66 134 7 181 -39 31 -105 27 -142 -7z"/>
<path d="M2930 7703 c-26 -10 -50 -35 -50 -54 0 -28 57 -52 120 -52 70 0 120
24 120 58 0 34 -45 55 -117 54 -32 0 -65 -3 -73 -6z"/>
<path d="M3174 7589 c-37 -11 -68 -43 -61 -63 19 -50 136 -71 210 -38 33 15
47 27 47 41 0 54 -106 86 -196 60z"/>
<path d="M3600 7450 l0 -60 1170 0 1170 0 0 60 c0 72 -17 80 -26 12 -6 -47 -7
-49 -40 -50 -37 -2 -38 2 -25 61 9 36 8 37 -21 37 -35 0 -60 -22 -52 -44 3 -9
1 -16 -6 -16 -7 0 -9 -8 -5 -20 5 -15 2 -20 -10 -20 -14 0 -16 7 -10 50 l7 50
-36 0 c-32 0 -36 -3 -45 -37 -6 -21 -11 -44 -11 -50 0 -7 -5 -13 -10 -13 -7 0
-9 19 -6 50 l4 50 -34 0 c-20 0 -33 -4 -29 -9 3 -5 -2 -16 -10 -25 -8 -8 -11
-17 -6 -20 5 -3 7 -15 4 -26 -7 -27 -43 -27 -43 0 0 11 3 20 8 20 4 0 7 14 7
30 0 28 -3 30 -36 30 -31 0 -38 -5 -52 -35 -9 -20 -17 -42 -17 -50 0 -8 -4
-15 -10 -15 -5 0 -10 23 -10 50 l0 50 -36 0 c-19 0 -33 -4 -29 -9 3 -5 -2 -16
-10 -25 -8 -8 -11 -17 -6 -20 5 -3 7 -15 4 -26 -7 -27 -43 -27 -43 0 0 11 3
20 8 20 4 0 7 14 7 30 l0 30 -857 0 -858 0 0 -60z"/>
<path d="M1819 7111 l-29 -29 0 -246 0 -246 -234 0 c-129 0 -246 -4 -260 -10
-52 -19 -61 -49 -64 -229 -5 -200 1 -241 35 -275 l26 -26 248 0 249 0 0 -240
c0 -157 4 -248 11 -264 23 -50 60 -57 275 -54 l196 3 29 33 29 32 0 245 0 245
249 0 248 0 26 26 c34 34 40 75 35 275 -3 180 -12 210 -64 229 -14 6 -131 10
-260 10 l-234 0 0 246 0 246 -29 29 -29 29 -212 0 -212 0 -29 -29z"/>
<path d="M4090 6317 c-56 -20 -477 -342 -496 -379 -11 -22 -15 -47 -12 -85 4
-46 10 -60 41 -90 30 -31 44 -37 91 -41 43 -3 63 0 90 16 42 25 437 325 453
344 7 8 17 34 24 60 11 41 10 49 -12 94 -36 73 -109 106 -179 81z"/>
<path d="M5147 6320 c-16 -5 -131 -86 -257 -180 -166 -124 -232 -180 -244
-204 -34 -72 -10 -155 56 -197 26 -15 46 -19 88 -17 54 4 60 7 280 173 123 94
233 183 244 198 29 40 29 125 0 164 -39 52 -112 80 -167 63z"/>
</g>
</svg>
